<?xml version="1.0" encoding="UTF-8" standalone="no"?>
<svg
   xmlns:dc="http://purl.org/dc/elements/1.1/"
   xmlns:cc="http://creativecommons.org/ns#"
   xmlns:rdf="http://www.w3.org/1999/02/22-rdf-syntax-ns#"
   xmlns:svg="http://www.w3.org/2000/svg"
   xmlns="http://www.w3.org/2000/svg"
   xmlns:sodipodi="http://sodipodi.sourceforge.net/DTD/sodipodi-0.dtd"
   xmlns:inkscape="http://www.inkscape.org/namespaces/inkscape"
   height="512pt"
   viewBox="0 -60 512.001 512"
   width="512pt"
   version="1.1"
   id="svg28"
   sodipodi:docname="xbofs.win.svg"
   inkscape:version="0.92.4 (5da689c313, 2019-01-14)">
  <metadata
     id="metadata34">
    <rdf:RDF>
      <cc:Work
         rdf:about="">
        <dc:format>image/svg+xml</dc:format>
        <dc:type
           rdf:resource="http://purl.org/dc/dcmitype/StillImage" />
        <dc:title></dc:title>
      </cc:Work>
    </rdf:RDF>
  </metadata>
  <defs
     id="defs32" />
  <sodipodi:namedview
     pagecolor="#ffffff"
     bordercolor="#666666"
     borderopacity="1"
     objecttolerance="10"
     gridtolerance="10"
     guidetolerance="10"
     inkscape:pageopacity="0"
     inkscape:pageshadow="2"
     inkscape:window-width="1857"
     inkscape:window-height="1057"
     id="namedview30"
     showgrid="false"
     inkscape:zoom="0.69140625"
     inkscape:cx="520.44469"
     inkscape:cy="265.20211"
     inkscape:window-x="-8"
     inkscape:window-y="-8"
     inkscape:window-maximized="1"
     inkscape:current-layer="svg28" />
  <path
     d="m502 187.910156v117.902344c0 11.609375-9.410156 21.019531-21.019531 21.019531h-449.960938c-11.609375 0-21.019531-9.410156-21.019531-21.019531v-117.90625c0-21.480469 9.410156-41.886719 25.746094-55.835938 13.292968-11.34375 30.195312-17.578124 47.667968-17.578124h345.164063c17.472656 0 34.371094 6.230468 47.660156 17.574218l.007813.003906c16.34375 13.949219 25.753906 34.355469 25.753906 55.839844zm0 0"
     fill="#dfecff"
     id="path2"
     style="fill:#666666" />
  <path
     d="m502 305.824219v55.847656c0 11.605469-9.40625 21.011719-21.011719 21.011719h-449.976562c-11.605469 0-21.011719-9.40625-21.011719-21.011719v-55.847656c0 11.59375 9.40625 21.003906 21.011719 21.003906h449.976562c11.605469-.003906 21.011719-9.410156 21.011719-21.003906zm0 0"
     fill="#868eaf"
     id="path4"
     style="fill:#1a1a1a" />
  <path
     d="m205.648438 62.246094c0 28.855468-23.390626 52.246094-52.246094 52.246094-28.851563 0-52.242188-23.390626-52.242188-52.246094 0-28.855469 23.390625-52.246094 52.242188-52.246094 28.855468 0 52.246094 23.390625 52.246094 52.246094zm0 0"
     fill="#ff5c7d"
     id="path6"
     style="fill:#0000ff" />
  <path
     d="m172.839844 110.753906v159.789063c0 5.359375-2.179688 10.21875-5.691406 13.738281-3.519532 3.519531-8.378907 5.691406-13.75 5.691406-10.726563 0-19.429688-8.699218-19.429688-19.429687v-159.789063c6.011719 2.410156 12.5625 3.738282 19.429688 3.738282 6.871093 0 13.429687-1.328126 19.441406-3.738282zm0 0"
     fill="#868eaf"
     id="path8"
     style="fill:#1a1a1a;fill-opacity:1" />
  <path
     d="m172.839844 110.753906v111.789063c0 5.359375-2.179688 10.21875-5.691406 13.738281-3.519532 3.519531-8.378907 5.691406-13.75 5.691406-10.726563 0-19.429688-8.699218-19.429688-19.429687v-111.789063c6.011719 2.410156 12.5625 3.738282 19.429688 3.738282 6.871093 0 13.429687-1.328126 19.441406-3.738282zm0 0"
     fill="#dfecff"
     id="path10"
     style="fill:#000000" />
  <path
     d="m80.703125 222.699219c0-10.730469 8.699219-19.433594 19.433594-19.433594h33.835937v38.863281h-33.835937c-10.734375.003906-19.433594-8.699218-19.433594-19.429687zm0 0"
     fill="#868eaf"
     id="path12"
     style="fill:#1a1a1a;fill-opacity:1" />
  <path
     d="m172.835938 242.132812v-38.863281h33.839843c10.730469 0 19.429688 8.699219 19.429688 19.429688 0 10.734375-8.699219 19.433593-19.429688 19.433593zm0 0"
     fill="#868eaf"
     id="path14"
     style="fill:#1a1a1a;fill-opacity:1" />
  <path
     d="m354.730469 252.132812c0 18.351563-14.878907 33.230469-33.230469 33.230469s-33.230469-14.878906-33.230469-33.230469c0-18.355468 14.878907-33.230468 33.230469-33.230468s33.230469 14.875 33.230469 33.230468zm0 0"
     fill="#80b4ff"
     id="path16"
     style="fill:#00ff00" />
  <path
     d="m442.351562 189.570312c0 18.351563-14.878906 33.230469-33.230468 33.230469-18.351563 0-33.230469-14.878906-33.230469-33.230469 0-18.355468 14.878906-33.234374 33.230469-33.234374 18.351562 0 33.230468 14.878906 33.230468 33.234374zm0 0"
     fill="#a0e4a5"
     id="path18"
     style="fill:#ff0000" />
  <path
     d="m512 187.910156c0-24.425781-10.644531-47.53125-29.210938-63.402344-.019531-.015624-.035156-.03125-.054687-.046874-15.085937-12.878907-34.320313-19.96875-54.15625-19.96875h-229.515625c10.285156-11.105469 16.585938-25.953126 16.585938-42.246094 0-34.324219-27.921876-62.246094-62.242188-62.246094-34.324219 0-62.246094 27.921875-62.246094 62.246094 0 16.292968 6.300782 31.140625 16.585938 42.246094h-24.332032c-19.835937 0-39.070312 7.09375-54.15625 19.972656-18.59375 15.871094-29.257812 38.996094-29.257812 63.441406v117.90625.007812.003907 55.847656c0 17.101563 13.910156 31.011719 31.011719 31.011719h449.976562c17.101563 0 31.011719-13.910156 31.011719-31.011719v-55.847656-.003907c0-.003906 0-.003906 0-.007812zm-388.03125 44.222656h-23.832031c-5.203125 0-9.433594-4.230468-9.433594-9.433593 0-5.199219 4.230469-9.433594 9.433594-9.433594h23.832031zm20 18.28125c2.964844 1.003907 6.132812 1.558594 9.429688 1.558594 3.261718 0 6.441406-.535156 9.441406-1.546875v20.117188c0 2.515625-.984375 4.886719-2.761719 6.667969-1.78125 1.78125-4.152344 2.761718-6.679687 2.761718-5.199219 0-9.429688-4.230468-9.429688-9.429687zm38.871094-37.144531h23.835937c5.199219 0 9.429688 4.230469 9.429688 9.429688 0 5.203125-4.230469 9.433593-9.429688 9.433593h-23.835937zm-20.003906 9.351563c-.019532 2.488281-1 4.828125-2.757813 6.589844-1.78125 1.78125-4.152344 2.761718-6.679687 2.761718-5.179688 0-9.394532-4.199218-9.425782-9.371094l-.003906-98.109374h18.871094zm-9.433594-202.621094c23.296875 0 42.246094 18.953125 42.246094 42.246094 0 18.15625-11.511719 33.671875-27.621094 39.632812-9.375 3.464844-19.890625 3.464844-29.261719-.007812-16.101563-5.964844-27.605469-21.476563-27.605469-39.625 0-23.292969 18.949219-42.246094 42.242188-42.246094zm338.597656 341.671875c0 6.074219-4.941406 11.011719-11.011719 11.011719h-449.976562c-6.070313 0-11.011719-4.9375-11.011719-11.011719v-26.863281c3.503906 1.332031 7.273438 2.023437 11.019531 2.023437h347.792969c5.523438 0 10-4.476562 10-10 0-.34375-.019531-.6875-.054688-1.023437-.507812-5.046875-4.769531-8.984375-9.949218-8.984375h-347.796875c-2.761719 0-5.28125-1.027344-7.214844-2.710938-2.320313-2.023437-3.796875-4.988281-3.796875-8.300781v-117.90625c0-18.585938 8.105469-36.164062 22.242188-48.230469 11.46875-9.789062 26.089843-15.183593 41.171874-15.183593h40.554688v68.773437h-23.835938c-16.226562 0-29.429687 13.203125-29.429687 29.433594s13.203125 29.433593 29.429687 29.433593h23.835938v18.410157c0 16.226562 13.203125 29.429687 29.429688 29.429687 7.871093 0 15.265624-3.0625 20.832031-8.628906 5.550781-5.566406 8.609375-12.953125 8.609375-20.800781v-18.410157h23.832031c16.230469 0 29.433594-13.203124 29.433594-29.433593s-13.203125-29.433594-29.433594-29.433594h-23.832031v-68.773437h245.738281c15.0625 0 29.667969 5.378906 41.128906 15.144531.015625.015625.03125.027343.046875.039062 14.136719 12.066407 22.246094 29.648438 22.246094 48.234375v117.902344c0 3.3125-1.476562 6.277344-3.796875 8.300781-1.933594 1.683594-4.453125 2.710938-7.214844 2.710938h-12.1875c-5.523437 0-10 4.476562-10 10v.003906.003906c0 5.519531 4.476563 10 10 10h12.179688c3.746093 0 7.515625-.691406 11.019531-2.027343zm0 0"
     id="path20" />
  <path
     d="m321.5 208.902344c-23.835938 0-43.230469 19.394531-43.230469 43.230468 0 23.835938 19.394531 43.230469 43.230469 43.230469s43.230469-19.394531 43.230469-43.230469c0-23.835937-19.394531-43.230468-43.230469-43.230468zm0 66.460937c-12.808594 0-23.230469-10.421875-23.230469-23.230469 0-12.808593 10.421875-23.230468 23.230469-23.230468s23.230469 10.421875 23.230469 23.230468c0 12.808594-10.421875 23.230469-23.230469 23.230469zm0 0"
     id="path22" />
  <path
     d="m409.121094 146.335938c-23.835938 0-43.230469 19.394531-43.230469 43.230468 0 23.839844 19.394531 43.230469 43.230469 43.230469 23.835937 0 43.230468-19.390625 43.230468-43.230469 0-23.835937-19.394531-43.230468-43.230468-43.230468zm0 66.464843c-12.808594 0-23.230469-10.421875-23.230469-23.230469 0-12.8125 10.421875-23.230468 23.230469-23.230468s23.230468 10.417968 23.230468 23.230468c0 12.808594-10.421874 23.230469-23.230468 23.230469zm0 0"
     id="path24" />
  <path
     d="m432.269531 323.542969c-3.316406-8.09375-15.152343-8.035157-18.46875 0-1.628906 3.9375-.523437 8.605469 2.710938 11.386719 3.234375 2.785156 8 3.1875 11.664062 1.003906 4.191407-2.5 5.972657-7.886719 4.09375-12.390625zm0 0"
     id="path26" />
</svg>
